<?xml version="1.0" standalone="no"?>
<!DOCTYPE svg PUBLIC "-//W3C//DTD SVG 20010904//EN"
 "http://www.w3.org/TR/2001/REC-SVG-20010904/DTD/svg10.dtd">
<svg version="1.0" xmlns="http://www.w3.org/2000/svg"
 width="500.000000pt" height="500.000000pt" viewBox="0 0 500.000000 500.000000"
 preserveAspectRatio="xMidYMid meet">

<g transform="translate(0.000000,500.000000) scale(0.100000,-0.100000)"
fill="#000000" stroke="none">
<path d="M2263 4711 c-132 -45 -230 -166 -248 -307 l-7 -51 -309 -93 -310 -93
-43 49 c-54 61 -121 99 -205 114 -83 15 -151 6 -227 -31 -152 -72 -231 -228
-204 -402 6 -40 19 -89 29 -109 l18 -37 -180 -223 -180 -223 -92 0 c-78 -1
-100 -5 -140 -26 -47 -24 -59 -38 -106 -124 -31 -57 -38 -169 -14 -232 42
-109 145 -176 271 -176 l70 0 105 -170 c57 -93 106 -173 107 -178 2 -6 -12
-33 -32 -62 -50 -73 -67 -129 -67 -217 -1 -78 18 -149 54 -210 53 -91 122
-133 248 -151 73 -10 93 -10 149 5 127 33 213 104 266 221 53 116 40 270 -34
385 -52 82 -210 137 -361 125 l-76 -6 -108 177 -107 176 25 52 c33 68 40 135
22 220 l-14 69 179 221 c175 216 179 221 211 216 18 -3 73 -5 122 -5 82 0 97
3 156 32 116 57 192 165 205 290 l7 60 310 93 310 93 21 -29 c51 -70 122 -114
221 -134 328 -68 568 294 379 575 -18 27 -50 61 -70 75 -84 57 -250 76 -351
41z"/>
<path d="M3412 4550 c-66 -10 -153 -52 -197 -96 -222 -221 -162 -563 116 -661
l49 -18 0 -463 c0 -432 -1 -463 -17 -468 -10 -4 -43 -18 -72 -32 -199 -93
-272 -363 -151 -551 43 -66 73 -86 184 -120 83 -26 180 -27 256 -3 l55 18 157
-188 157 -189 -24 -35 c-146 -215 -58 -523 182 -636 292 -138 623 73 623 397
0 197 -118 357 -308 420 -73 24 -227 18 -292 -12 l-46 -20 -156 187 -156 187
29 59 c101 205 20 439 -183 529 l-67 30 -1 468 c0 384 2 467 13 467 31 0 138
64 175 104 130 141 143 340 32 501 -64 92 -215 145 -358 125z"/>
<path d="M4288 3837 c-90 -26 -158 -96 -182 -191 -33 -127 26 -252 144 -305
25 -11 62 -21 82 -21 35 0 37 -2 56 -52 11 -29 54 -142 96 -252 l76 -198 -30
-35 c-43 -49 -61 -99 -62 -171 -2 -234 283 -350 450 -184 49 50 73 110 73 185
0 74 -19 123 -68 178 -44 48 -74 65 -150 82 l-57 13 -93 243 -93 243 27 32
c87 103 84 265 -5 359 -63 67 -176 98 -264 74z"/>
<path d="M2635 3658 c-66 -23 -124 -79 -152 -145 -10 -24 -21 -43 -25 -43 -18
0 -7 -116 16 -165 41 -89 142 -155 236 -155 94 0 201 72 239 161 45 103 16
256 -57 307 -65 46 -187 65 -257 40z"/>
<path d="M1575 3413 c-58 -21 -152 -85 -189 -130 -72 -85 -96 -230 -56 -336
12 -32 36 -77 54 -100 92 -121 299 -161 444 -86 l55 29 51 -35 c28 -20 114
-82 191 -139 129 -94 140 -105 137 -132 -3 -40 17 -122 41 -164 l20 -35 -76
-165 -76 -165 -63 -6 c-245 -22 -356 -321 -184 -493 59 -59 107 -80 198 -84
65 -3 85 0 131 21 115 53 172 142 172 272 0 80 -14 124 -60 195 -16 24 -14 30
61 193 l77 167 37 0 c48 0 132 43 163 83 133 175 1 416 -215 394 -29 -3 -62
-8 -73 -12 -26 -8 -403 264 -395 286 3 8 5 61 5 119 0 95 -3 110 -28 157 -60
115 -156 174 -292 180 -58 3 -93 -1 -130 -14z"/>
<path d="M2997 1586 c-64 -32 -103 -70 -135 -131 -54 -104 -26 -245 62 -323
66 -57 93 -67 196 -68 l94 -1 142 -179 142 -179 -21 -40 c-26 -50 -28 -162 -5
-217 25 -56 92 -123 150 -148 63 -27 171 -25 232 5 161 78 204 294 85 429 -65
73 -106 91 -217 91 l-94 1 -115 144 c-63 80 -126 159 -140 177 l-24 31 22 64
c35 105 11 215 -63 290 -53 52 -102 72 -188 75 -63 3 -83 0 -123 -21z"/>
</g>
</svg>
